<?xml version="1.0" encoding="utf-8"?>
<!-- Generator: Adobe Illustrator 26.4.1, SVG Export Plug-In . SVG Version: 6.00 Build 0)  -->
<svg version="1.1" xmlns="http://www.w3.org/2000/svg" xmlns:xlink="http://www.w3.org/1999/xlink" x="0px" y="0px"
	 viewBox="0 0 600 600" style="enable-background:new 0 0 600 600;" xml:space="preserve">
<style type="text/css">
	.st0{display:none;}
	.st1{display:inline;}
	.st2{fill:#FFFFFF;}
</style>
<g id="Layer_2" class="st0">
	<rect x="-1" y="-2.9" class="st1" width="600" height="602.9"/>
</g>
<g id="Layer_1">
	<path class="st2" d="M36.8,305.9c10.8-1,20.4,6.9,21.5,17.7c0,0,0,0,0,0l0,0c13,133.1,131.4,230.5,264.5,217.5
		s230.5-131.4,217.5-264.5S408.8,46.1,275.7,59.1c-27.4,2.7-54.1,10-79,21.6l14.4,24.3c2.8,4.9,1.2,11.1-3.7,13.9
		c-2.3,1.3-5.1,1.7-7.6,1.1l-88.2-5.3c-5.4-1.4-8.7-6.9-7.3-12.4c0,0,0,0,0,0L144,25.8c1.4-5.4,6.9-8.7,12.4-7.3
		c2.6,0.7,4.9,2.4,6.2,4.7l14,23.6c140-67.8,308.4-9.3,376.2,130.7s9.3,308.4-130.7,376.2S113.7,563,45.9,423
		c-14.5-30-23.6-62.4-26.9-95.6C18,316.5,26,306.9,36.8,305.9z"/>
</g>
</svg>
