<?xml version="1.0" encoding="utf-8"?>
<!-- Generator: Adobe Illustrator 26.4.1, SVG Export Plug-In . SVG Version: 6.00 Build 0)  -->
<svg version="1.1" xmlns="http://www.w3.org/2000/svg" xmlns:xlink="http://www.w3.org/1999/xlink" x="0px" y="0px"
	 viewBox="0 0 600 600" style="enable-background:new 0 0 600 600;" xml:space="preserve">
<style type="text/css">
	.st0{display:none;}
	.st1{display:inline;}
	.st2{fill:#FFFFFF;}
</style>
<g id="Layer_2" class="st0">
	<rect x="-1" y="-2.9" class="st1" width="600" height="602.9"/>
</g>
<g id="Layer_1">
	<path class="st2" d="M581,327.3c-3.2,33.2-12.3,65.6-26.9,95.6c-67.8,140-236.3,198.5-376.2,130.7S-20.6,317.4,47.2,177.4
		S283.5-21.1,423.5,46.7l14-23.6c1.4-2.3,3.6-4,6.2-4.7c5.4-1.4,11,1.9,12.4,7.3l39.7,76.5c0,0,0,0,0,0c1.4,5.4-1.9,11-7.3,12.4
		l-88.2,5.3c-2.6,0.7-5.3,0.3-7.6-1.1c-4.9-2.8-6.5-9.1-3.7-13.9l14.4-24.3c-24.9-11.6-51.6-19-79-21.6
		c-133.1-13-251.5,84.4-264.5,217.5s84.4,251.5,217.5,264.5s251.5-84.4,264.5-217.5l0,0c0,0,0,0,0,0c1-10.8,10.6-18.7,21.5-17.7
		C574.1,306.9,582,316.5,581,327.3z"/>
	<path class="st2" d="M182.8,277.8h22.8c8,0,14.7-1.4,19.9-4.1c5.3-2.9,9.2-6.7,11.8-11.6c2.6-5,4-10.7,4-17.3
		c0-6.4-1.2-12-3.5-16.7c-2.3-4.8-5.9-8.5-10.7-11c-4.7-2.6-10.7-4-18-4c-5.9,0-11.4,1.2-16.4,3.5c-4.9,2.3-8.8,5.7-11.8,10.1
		c-2.9,4.3-4.3,9.4-4.3,15.4H136c0-12,3.2-22.6,9.5-31.6c6.4-9.2,15.1-16.4,26-21.5c10.9-5.2,23.1-7.8,36.5-7.8
		c14.7,0,27.5,2.4,38.5,7.3c11.1,4.8,19.7,11.9,25.8,21.2c6.2,9.4,9.3,21,9.3,34.8c0,6.6-1.6,13.2-4.7,19.9
		c-3.1,6.5-7.6,12.4-13.6,17.7c-5.9,5.2-13.2,9.4-21.9,12.7c-8.6,3.2-18.4,4.7-29.5,4.7h-29.2V277.8z M182.8,309v-21.5H212
		c12.5,0,23.4,1.5,32.6,4.4c9.3,2.9,16.9,6.9,22.9,12.2c6,5.2,10.4,11.3,13.3,18.2c3,6.9,4.4,14.4,4.4,22.3
		c0,10.4-1.9,19.7-5.8,27.8c-3.9,8-9.3,14.9-16.4,20.5c-6.9,5.6-15.1,9.9-24.5,12.8c-9.4,2.9-19.5,4.3-30.4,4.3
		c-9.5,0-18.7-1.3-27.7-3.8c-8.9-2.6-16.9-6.6-24-11.8c-7.1-5.3-12.8-11.9-17-19.9c-4.2-8-6.3-17.4-6.3-28h40.5
		c0,6.1,1.5,11.6,4.4,16.4c3.1,4.8,7.2,8.6,12.5,11.3c5.4,2.6,11.5,4,18.2,4c7.4,0,13.8-1.3,19.1-4c5.4-2.8,9.5-6.6,12.4-11.6
		c2.9-5.1,4.3-11.2,4.3-18.2c0-8.4-1.6-15.1-4.7-20.3c-3.2-5.2-7.7-9-13.6-11.5c-5.8-2.4-12.7-3.7-20.8-3.7H182.8z"/>
	<path class="st2" d="M464.7,276.6V314c0,17.1-1.7,31.7-5.2,43.9c-3.5,12.1-8.5,22.1-15,29.8c-6.5,7.6-14.3,13.3-23.4,17
		c-9.1,3.6-19.2,5.3-30.3,5.3c-8.9,0-17.1-1.1-24.8-3.4c-7.6-2.3-14.5-5.9-20.6-10.7c-6-4.9-11.2-11.1-15.6-18.6
		c-4.3-7.5-7.6-16.6-9.9-27c-2.2-10.5-3.4-22.6-3.4-36.2v-37.4c0-17.1,1.7-31.7,5.2-43.7c3.6-12,8.6-21.9,15.1-29.5
		c6.5-7.6,14.3-13.2,23.4-16.7c9.1-3.6,19.2-5.3,30.3-5.3c9,0,17.2,1.1,24.8,3.4c7.6,2.2,14.5,5.8,20.5,10.5
		c6.1,4.7,11.3,10.8,15.6,18.3c4.3,7.4,7.5,16.4,9.8,26.9C463.6,250.9,464.7,262.9,464.7,276.6z M424.4,319.5v-48.6
		c0-8.6-0.5-16-1.5-22.3c-0.9-6.4-2.3-11.9-4.1-16.4c-1.8-4.5-4.1-8.1-6.9-10.9c-2.8-2.9-5.9-4.9-9.5-6.3c-3.6-1.3-7.5-2-11.8-2
		c-5.3,0-10,1.1-14.2,3.2c-4.2,2-7.7,5.3-10.5,9.8c-2.9,4.5-5,10.4-6.6,17.9c-1.4,7.3-2.1,16.3-2.1,26.9v48.6c0,8.6,0.5,16,1.4,22.5
		c1,6.4,2.4,11.9,4.3,16.5c1.9,4.6,4.2,8.4,6.9,11.3c2.8,2.9,5.9,5,9.5,6.4c3.6,1.3,7.5,2,11.8,2c5.4,0,10.1-1.1,14.2-3.2
		c4.2-2.1,7.7-5.5,10.5-10.1c2.9-4.7,5-10.7,6.4-18.2C423.6,339.2,424.4,330.1,424.4,319.5z"/>
</g>
</svg>
