<svg width="90" height="108" viewBox="0 0 90 108" fill="none" xmlns="http://www.w3.org/2000/svg">
<path d="M15.8348 28.2234C28.1108 17.7403 44.4936 14.6422 59.6322 19.7792L47.4024 5.25117C46.3616 4.01474 46.3949 1.86104 47.7759 0.681685C49.0035 -0.366627 51.272 -0.178509 52.3128 1.05792L68.9661 20.8408C70.1371 22.2318 69.8202 24.362 68.5926 25.4103L48.9508 42.1833C47.5698 43.3626 45.5849 43.198 44.414 41.807C43.3731 40.5706 43.4065 38.4169 44.7875 37.2376L57.8309 26.0992C44.9374 21.4359 30.4561 23.9729 20.0214 32.8835C3.75562 46.7736 1.87787 71.4892 15.5388 87.7173C29.3298 104.1 53.7156 106.122 69.9814 92.2322C79.035 84.5009 84.0921 73.2753 83.6549 61.1629C83.5114 59.4258 84.7857 57.8063 86.6405 57.8163C88.3652 57.6718 89.8197 59.0863 89.9632 60.8234C90.5205 74.9585 84.7328 88.1362 73.9913 97.3089C55.1168 113.427 26.7613 111.075 10.6284 91.9106C-5.37444 72.9005 -3.03973 44.3412 15.8348 28.2234Z" fill="white"/>
<path d="M23.4861 62.2318H25.8434C26.6766 62.2318 27.3621 62.0894 27.9 61.8047C28.4484 61.5094 28.8545 61.1086 29.1182 60.6023C29.3924 60.0855 29.5295 59.4896 29.5295 58.8146C29.5295 58.1502 29.4082 57.5754 29.1656 57.0902C28.923 56.5945 28.5539 56.2148 28.0582 55.9512C27.573 55.6769 26.9508 55.5398 26.1914 55.5398C25.5797 55.5398 25.0154 55.6611 24.4986 55.9037C23.9924 56.1463 23.5863 56.4943 23.2805 56.9478C22.9852 57.3908 22.8375 57.9234 22.8375 58.5457H18.6451C18.6451 57.3012 18.9721 56.2096 19.626 55.2709C20.2904 54.3217 21.1869 53.5781 22.3154 53.0402C23.4439 52.5023 24.7043 52.2334 26.0965 52.2334C27.6152 52.2334 28.9441 52.4865 30.0832 52.9928C31.2328 53.4885 32.124 54.2215 32.7568 55.1918C33.4002 56.1621 33.7219 57.3644 33.7219 58.7988C33.7219 59.4844 33.5584 60.1699 33.2314 60.8555C32.915 61.5305 32.4457 62.1422 31.8234 62.6906C31.2117 63.2285 30.4576 63.6662 29.5611 64.0037C28.6752 64.3307 27.6574 64.4941 26.5078 64.4941H23.4861V62.2318ZM23.4861 65.4592V63.2285H26.5078C27.8051 63.2285 28.9283 63.3814 29.8775 63.6873C30.8373 63.9826 31.6283 64.4045 32.2506 64.9529C32.8728 65.4908 33.3316 66.1184 33.627 66.8355C33.9328 67.5527 34.0857 68.3226 34.0857 69.1453C34.0857 70.2211 33.8853 71.1809 33.4846 72.0246C33.0838 72.8578 32.5195 73.5644 31.7918 74.1445C31.0746 74.7246 30.2309 75.1676 29.2605 75.4734C28.2902 75.7687 27.2408 75.9164 26.1123 75.9164C25.1314 75.9164 24.177 75.7846 23.2488 75.5209C22.3312 75.2467 21.5033 74.8406 20.765 74.3027C20.0268 73.7543 19.4414 73.0687 19.009 72.2461C18.5766 71.4129 18.3603 70.4478 18.3603 69.351H22.5527C22.5527 69.9838 22.7057 70.548 23.0115 71.0437C23.3279 71.5394 23.7603 71.9297 24.3088 72.2144C24.8678 72.4887 25.4953 72.6258 26.1914 72.6258C26.9613 72.6258 27.6205 72.4887 28.1689 72.2144C28.7279 71.9297 29.1551 71.5289 29.4504 71.0121C29.7457 70.4848 29.8934 69.8572 29.8934 69.1295C29.8934 68.2646 29.7299 67.5633 29.4029 67.0254C29.076 66.4875 28.6066 66.092 27.9949 65.8389C27.3937 65.5857 26.6766 65.4592 25.8434 65.4592H23.4861Z" fill="white"/>
<path d="M52.6746 62.1053V65.9812C52.6746 67.7531 52.4953 69.2666 52.1367 70.5217C51.7781 71.7768 51.2613 72.8051 50.5863 73.6066C49.9113 74.3976 49.1045 74.983 48.1658 75.3627C47.2271 75.7318 46.183 75.9164 45.0334 75.9164C44.1158 75.9164 43.2615 75.8004 42.4705 75.5684C41.6795 75.3258 40.9676 74.9566 40.3348 74.4609C39.7125 73.9547 39.1746 73.3113 38.7211 72.5309C38.2781 71.7504 37.9353 70.817 37.6928 69.7307C37.4607 68.6443 37.3447 67.3945 37.3447 65.9812V62.1053C37.3447 60.3334 37.524 58.8252 37.8826 57.5807C38.2518 56.3361 38.7738 55.3184 39.4488 54.5273C40.1238 53.7363 40.9307 53.1615 41.8693 52.8029C42.808 52.4338 43.8521 52.2492 45.0018 52.2492C45.9299 52.2492 46.7842 52.3652 47.5646 52.5973C48.3557 52.8293 49.0623 53.1932 49.6846 53.6889C50.3174 54.174 50.8553 54.8068 51.2982 55.5873C51.7412 56.3572 52.0787 57.2853 52.3107 58.3717C52.5533 59.4475 52.6746 60.692 52.6746 62.1053ZM48.498 66.5508V61.5199C48.498 60.634 48.4453 59.8641 48.3398 59.2102C48.2449 58.5457 48.1025 57.9814 47.9127 57.5174C47.7228 57.0533 47.4855 56.6789 47.2008 56.3941C46.916 56.0988 46.5891 55.8826 46.2199 55.7455C45.8508 55.6084 45.4447 55.5398 45.0018 55.5398C44.4533 55.5398 43.9629 55.6506 43.5305 55.8721C43.098 56.083 42.7342 56.4205 42.4389 56.8846C42.1436 57.3486 41.9168 57.9656 41.7586 58.7355C41.6109 59.4949 41.5371 60.423 41.5371 61.5199V66.5508C41.5371 67.4367 41.5846 68.2119 41.6795 68.8764C41.785 69.5408 41.9326 70.1103 42.1225 70.585C42.3228 71.0596 42.5602 71.4498 42.8344 71.7557C43.1191 72.051 43.4461 72.2725 43.8152 72.4201C44.1844 72.5572 44.5904 72.6258 45.0334 72.6258C45.5924 72.6258 46.0828 72.515 46.5047 72.2935C46.9371 72.0721 47.301 71.724 47.5963 71.2494C47.8916 70.7643 48.1131 70.1367 48.2607 69.3668C48.4189 68.5863 48.498 67.6476 48.498 66.5508Z" fill="white"/>
<path d="M65.5682 70.9172C65.5682 70.5586 65.4732 70.2369 65.2834 69.9521C65.0935 69.6674 64.735 69.409 64.2076 69.1769C63.6908 68.9344 62.9314 68.7076 61.9295 68.4967C61.0435 68.3068 60.2262 68.0695 59.4773 67.7848C58.7285 67.5 58.0852 67.1572 57.5473 66.7564C57.0094 66.3451 56.5875 65.8652 56.2816 65.3168C55.9863 64.7578 55.8387 64.1144 55.8387 63.3867C55.8387 62.6801 55.9916 62.0156 56.2975 61.3934C56.6033 60.7605 57.0463 60.2068 57.6264 59.7322C58.2064 59.2471 58.9131 58.8674 59.7463 58.5932C60.5795 58.3084 61.5182 58.166 62.5623 58.166C64.0178 58.166 65.2676 58.4033 66.3117 58.8779C67.3664 59.3525 68.1732 60.0064 68.7322 60.8396C69.2912 61.6623 69.5707 62.5904 69.5707 63.624H65.3941C65.3941 63.1705 65.2887 62.7592 65.0777 62.39C64.8773 62.0209 64.5662 61.7256 64.1443 61.5041C63.7225 61.2721 63.1898 61.156 62.5465 61.156C61.9664 61.156 61.476 61.251 61.0752 61.4408C60.685 61.6307 60.3896 61.8785 60.1893 62.1844C59.9889 62.4902 59.8887 62.8277 59.8887 63.1969C59.8887 63.4711 59.9414 63.7189 60.0469 63.9404C60.1629 64.1514 60.3475 64.3465 60.6006 64.5258C60.8537 64.7051 61.1965 64.8685 61.6289 65.0162C62.0719 65.1639 62.615 65.3062 63.2584 65.4434C64.5346 65.6965 65.6473 66.034 66.5965 66.4559C67.5562 66.8672 68.3051 67.4156 68.843 68.1012C69.3809 68.7867 69.6498 69.6621 69.6498 70.7273C69.6498 71.4867 69.4863 72.1828 69.1594 72.8156C68.8324 73.4379 68.3578 73.981 67.7355 74.4451C67.1133 74.9092 66.3697 75.273 65.5049 75.5367C64.64 75.7898 63.6644 75.9164 62.5781 75.9164C61.0066 75.9164 59.6777 75.6369 58.5914 75.0779C57.5051 74.5084 56.6824 73.7912 56.1234 72.9264C55.5644 72.051 55.285 71.1439 55.285 70.2053H59.2875C59.3191 70.8697 59.4984 71.4023 59.8254 71.8031C60.1523 72.2039 60.5637 72.4939 61.0594 72.6732C61.5656 72.842 62.0982 72.9264 62.6572 72.9264C63.29 72.9264 63.8227 72.842 64.2551 72.6732C64.6875 72.4939 65.0144 72.2566 65.2359 71.9613C65.4574 71.6555 65.5682 71.3074 65.5682 70.9172Z" fill="white"/>
</svg>
