<svg width="90" height="108" viewBox="0 0 90 108" fill="none" xmlns="http://www.w3.org/2000/svg">
<path d="M15.8348 28.2234C28.1108 17.7403 44.4936 14.6422 59.6322 19.7792L47.4024 5.25117C46.3616 4.01474 46.3949 1.86104 47.7759 0.681685C49.0035 -0.366627 51.272 -0.178509 52.3128 1.05792L68.9661 20.8408C70.1371 22.2318 69.8202 24.362 68.5926 25.4103L48.9508 42.1833C47.5698 43.3626 45.5849 43.198 44.414 41.807C43.3731 40.5706 43.4065 38.4169 44.7875 37.2376L57.8309 26.0992C44.9374 21.4359 30.4561 23.9729 20.0214 32.8835C3.75562 46.7736 1.87787 71.4892 15.5388 87.7173C29.3298 104.1 53.7156 106.122 69.9814 92.2322C79.035 84.5009 84.0921 73.2753 83.6549 61.1629C83.5114 59.4258 84.7857 57.8063 86.6405 57.8163C88.3652 57.6718 89.8197 59.0863 89.9632 60.8234C90.5205 74.9585 84.7328 88.1362 73.9913 97.3089C55.1168 113.427 26.7613 111.075 10.6284 91.9106C-5.37444 72.9005 -3.03973 44.3412 15.8348 28.2234Z" fill="white"/>
</svg>
