<?xml version="1.0" encoding="utf-8"?>
<!-- Generator: Adobe Illustrator 26.4.1, SVG Export Plug-In . SVG Version: 6.00 Build 0)  -->
<svg version="1.1" xmlns="http://www.w3.org/2000/svg" xmlns:xlink="http://www.w3.org/1999/xlink" x="0px" y="0px"
	 viewBox="0 0 600 600" style="enable-background:new 0 0 600 600;" xml:space="preserve">
<style type="text/css">
	.st0{display:none;}
	.st1{display:inline;}
	.st2{fill:#FFFFFF;}
</style>
<g id="Layer_2" class="st0">
	<rect x="-1" y="-2.9" class="st1" width="600" height="602.9"/>
</g>
<g id="Layer_1">
	<path class="st2" d="M581,327.3c-3.2,33.2-12.3,65.6-26.9,95.6c-67.8,140-236.3,198.5-376.2,130.7S-20.6,317.4,47.2,177.4
		S283.5-21.1,423.5,46.7l14-23.6c1.4-2.3,3.6-4,6.2-4.7c5.4-1.4,11,1.9,12.4,7.3l39.7,76.5c0,0,0,0,0,0c1.4,5.4-1.9,11-7.3,12.4
		l-88.2,5.3c-2.6,0.7-5.3,0.3-7.6-1.1c-4.9-2.8-6.5-9.1-3.7-13.9l14.4-24.3c-24.9-11.6-51.6-19-79-21.6
		c-133.1-13-251.5,84.4-264.5,217.5s84.4,251.5,217.5,264.5s251.5-84.4,264.5-217.5l0,0c0,0,0,0,0,0c1-10.8,10.6-18.7,21.5-17.7
		C574.1,306.9,582,316.5,581,327.3z"/>
</g>
</svg>
