<?xml version="1.0" encoding="utf-8"?>
<svg xmlns="http://www.w3.org/2000/svg" viewBox="0 0 495.5 554.9" width="24" height="24">
<path style="fill: #00AABB" class="st0" d="M244.9,9.2l2.8,49.8c63.5,0,126.9,24.2,175.4,72.6c96.6,96.6,96.6,254.3-0.1,350.9
  c-96.9,96.7-253.8,96.7-350.6-0.1C27.1,437.1,3,378.8,0,319.6c-0.4-6.9,5.1-12.7,12-12.7h27.9c6.4,0,11.7,4.9,12.1,11.3
  c2.7,46.3,21.7,91.9,57.1,127.3c76.6,76.6,200.6,76.6,277.2,0c76.6-76.6,76.6-200.6,0-277.2c-38.3-38.3-88.4-57.4-138.6-57.4
  l-2.8,52.5c0,8.2-9.9,12.2-15.6,6.5l-77.1-77.1c-3.6-3.6-3.6-9.4,0-12.9l77.1-77.1C235-3.1,244.9,1,244.9,9.2z"></path>
<g>
  <path style="fill: #00AABB" class="st0" d="M211.7,402.6h-35.4V269.2c-12.9,12.1-28.2,21-45.7,26.8v-32.1c9.2-3,19.3-8.8,30.1-17.2s18.3-18.3,22.3-29.5
    h28.7V402.6z"></path>
  <path style="fill: #00AABB" class="st0" d="M314.2,217.2c17.9,0,31.9,6.4,42,19.1c12,15.1,18,40.2,18,75.2c0,34.9-6,60-18.1,75.3
    c-10,12.6-23.9,18.9-41.8,18.9c-18,0-32.5-6.9-43.5-20.7c-11-13.8-16.5-38.4-16.5-73.9c0-34.8,6-59.8,18.1-75.1
    C282.4,223.5,296.3,217.2,314.2,217.2z M314.2,246.5c-4.3,0-8.1,1.4-11.5,4.1c-3.4,2.7-6,7.6-7.8,14.7c-2.4,9.2-3.7,24.6-3.7,46.2
    s1.1,36.6,3.3,44.7c2.2,8.1,4.9,13.5,8.3,16.2c3.3,2.7,7.1,4,11.4,4s8.1-1.4,11.5-4.1c3.4-2.7,6-7.6,7.8-14.7
    c2.4-9.1,3.7-24.4,3.7-46.1s-1.1-36.6-3.3-44.7c-2.2-8.1-4.9-13.5-8.3-16.3C322.3,247.9,318.5,246.5,314.2,246.5z"></path>
</g>
</svg>
