<?xml version="1.0" encoding="utf-8"?>
<svg xmlns="http://www.w3.org/2000/svg" viewBox="0 0 23.8 24.1" width="24" height="24">
<g>
  <path style="fill: #00AABB" class="st0" d="M23.8,12c0,4.6-1.6,8.7-4.3,12L18,22.8c2.4-3,3.8-6.7,3.8-10.8c0-4.1-1.4-7.8-3.8-10.8L19.5,0
    C22.2,3.3,23.8,7.5,23.8,12z M16.4,2.4l-1.6,1.2c1.9,2.3,3,5.2,3,8.4c0,3.1-1.1,6-2.9,8.2l1.5,1.3c2.1-2.6,3.3-5.9,3.3-9.5
    C19.8,8.4,18.5,5.1,16.4,2.4z M13.2,4.9l-1.6,1.2c1.3,1.6,2.1,3.7,2.1,5.9c0,2.2-0.7,4.1-2,5.7l1.6,1.3c1.5-1.9,2.4-4.3,2.4-7
    C15.8,9.3,14.8,6.8,13.2,4.9z M10,4.3C10,4,9.8,4,9.6,4.2L4.8,8.7C4.6,8.9,4.2,9.1,3.9,9.1H0.5C0.2,9.1,0,9.3,0,9.6v4
    C0,13.8,0.2,14,0.5,14H4c0.3,0,0.7,0.2,0.9,0.3l4.8,4.6c0.2,0.2,0.4,0.1,0.4-0.2V4.3z"></path>
</g>
</svg>
