<?xml version="1.0" encoding="UTF-8" standalone="no"?>

<svg
   xmlns="http://www.w3.org/2000/svg"
   width="8.1853981mm"
   height="9.3566599mm"
   viewBox="0 0 8.1853981 9.3566599"
   version="1.1">
  <g transform="translate(-0.07873628,-0.05495696)">
    <path
       style="opacity:1;fill:#ffffff;fill-opacity:1;stroke:#ffffff;stroke-width:0.26458332px;stroke-linecap:butt;stroke-linejoin:miter;stroke-opacity:1"
       d="m 0.21103403,0.69219386 0.01624,7.88730034 c 0,0 0.0078,0.154062 0.07292,0.270986 0.05204,0.09344 0.215244,0.271661 0.316486,0.332007 0.111188,0.06627 0.52168697,0.129505 0.67069597,0.06982 0.192159,-0.07697 0.06426,-0.01932 0.06426,-0.01932 l 6.435922,-3.822616 c 0,0 0.07978,-0.06832 0.122547,-0.124024 0.130415,-0.169881 0.214147,-0.320886 0.219994,-0.6024 0.0059,-0.284036 0.0021,-0.335681 -0.166841,-0.54777 -0.03735,-0.04689 -0.112212,-0.10483 -0.112212,-0.10483 L 1.453504,0.34017396 c 0,0 -0.121725,-0.063272 -0.282006,-0.1070439 -0.15008,-0.040986 -0.44803797,-0.057523 -0.58172897,-0.018456 -0.136733,0.039956 -0.263933,0.1612452 -0.314129,0.2594303 -0.06011,0.1175718 -0.06461,0.2180893 -0.06461,0.2180893 z" />
  </g>
</svg>
